<svg xmlns="http://www.w3.org/2000/svg" xmlns:xlink="http://www.w3.org/1999/xlink" viewBox="0,0,256,256" width="50px" height="50px" fill-rule="nonzero"><g fill="#ffffff" fill-rule="nonzero" stroke="none" stroke-width="1" stroke-linecap="butt" stroke-linejoin="miter" stroke-miterlimit="10" stroke-dasharray="" stroke-dashoffset="0" font-family="none" font-weight="none" font-size="none" text-anchor="none" style="mix-blend-mode: normal"><g transform="scale(5.12,5.12)"><path d="M18.99609,3c-0.10937,0 -0.21094,0.01563 -0.3125,0.05078c-8.94922,2.99219 -15.68359,11.41797 -15.68359,21.38672c0,12.44922 10.11328,22.5625 22.5625,22.5625c9.96875,0 18.39453,-6.73437 21.38672,-15.68359c0.13672,-0.41016 -0.00781,-0.86328 -0.35547,-1.12109c-0.35156,-0.25781 -0.82422,-0.25781 -1.17578,-0.00781c-3.08594,2.22266 -6.82422,3.78125 -10.82812,3.78125c-10.26172,0 -18.55859,-8.29687 -18.55859,-18.55859c0,-4.00391 1.55859,-7.74219 3.78125,-10.82422c0.21875,-0.30859 0.24609,-0.71094 0.07422,-1.04297c-0.17187,-0.33594 -0.51562,-0.54297 -0.89062,-0.54297zM16.62109,6.33594c-1.46484,2.75 -2.58984,5.74219 -2.58984,9.07422c0,11.34375 9.21484,20.55859 20.55859,20.55859c3.33203,0 6.32422,-1.125 9.07813,-2.59375c-3.40234,6.72656 -10.11328,11.625 -18.10547,11.625c-11.36719,0 -20.5625,-9.19531 -20.5625,-20.5625c0,-7.98828 4.89844,-14.70312 11.62109,-18.10156z"></path></g></g></svg>