<svg fill="#228BE6" xmlns="http://www.w3.org/2000/svg"  viewBox="0 0 64 64" width="64px" height="64px"><path d="M 17.298828 6.1503906 L 7.4941406 15.908203 C 3.2051406 20.197203 3.2044844 27.175234 7.5214844 31.490234 L 31.03125 54.101562 C 34.10525 57.058563 38.249 58.71875 42.5 58.71875 C 42.66 58.71875 42.819469 58.711031 42.980469 58.707031 C 43.091469 58.710031 43.203453 58.722656 43.314453 58.722656 C 46.130453 58.722656 48.946797 57.650859 51.091797 55.505859 L 58.869141 47.728516 L 56.042969 44.898438 L 48.263672 52.677734 C 46.841672 54.100734 44.953937 54.774844 43.085938 54.714844 L 43.085938 54.703125 C 43.009937 54.707125 42.933422 54.701125 42.857422 54.703125 C 41.220422 54.597125 39.614234 53.926734 38.365234 52.677734 L 14.322266 28.636719 C 11.593266 25.907719 11.593266 21.466328 14.322266 18.736328 L 22.099609 10.957031 L 19.271484 8.1308594 L 19.269531 8.1328125 L 17.298828 6.1503906 z M 30.585938 19.443359 L 23.515625 26.515625 L 40.484375 43.484375 L 47.556641 36.414062 L 41.873047 30.755859 L 37.644531 34.986328 L 29.171875 26.515625 L 33.414062 22.271484 L 30.585938 19.443359 z"/></svg>